<svg width="44" height="44" viewBox="0 0 44 44" fill="none" xmlns="http://www.w3.org/2000/svg">
<rect x="0.5" y="0.5" width="43" height="43" rx="21.5" fill="white"/>
<rect x="0.5" y="0.5" width="43" height="43" rx="21.5" stroke="#F4F5F6"/>
<g clip-path="url(#clip0_272_4038)">
<path d="M34 22.0732C34 15.4462 28.627 10.0732 22 10.0732C15.373 10.0732 10 15.4462 10 22.0732C10 28.0632 14.388 33.0272 20.125 33.9272V25.5422H17.078V22.0722H20.125V19.4302C20.125 16.4232 21.917 14.7612 24.658 14.7612C25.97 14.7612 27.344 14.9962 27.344 14.9962V17.9492H25.83C24.339 17.9492 23.874 18.8742 23.874 19.8232V22.0732H27.202L26.67 25.5432H23.874V33.9282C29.612 33.0272 34 28.0622 34 22.0732Z" fill="#777E90"/>
</g>
<defs>
<clipPath id="clip0_272_4038">
<rect width="24" height="24" fill="white" transform="translate(10 10)"/>
</clipPath>
</defs>
</svg>
