<svg width="84" height="84" viewBox="0 0 84 84" fill="none" xmlns="http://www.w3.org/2000/svg">
<g filter="url(#filter0_d_272_4041)">
<rect x="20" y="10" width="44" height="44" rx="22" fill="#777E90"/>
<rect x="20.5" y="10.5" width="43" height="43" rx="21.5" stroke="#F4F5F6"/>
<g clip-path="url(#clip0_272_4041)">
<path d="M42 20C38.74 20 38.333 20.015 37.053 20.072C35.775 20.132 34.905 20.333 34.14 20.63C33.351 20.936 32.681 21.347 32.014 22.014C31.347 22.681 30.935 23.35 30.63 24.14C30.333 24.905 30.131 25.775 30.072 27.053C30.012 28.333 30 28.74 30 32C30 35.26 30.015 35.667 30.072 36.947C30.132 38.224 30.333 39.095 30.63 39.86C30.936 40.648 31.347 41.319 32.014 41.986C32.681 42.652 33.35 43.065 34.14 43.37C34.906 43.666 35.776 43.869 37.053 43.928C38.333 43.988 38.74 44 42 44C45.26 44 45.667 43.985 46.947 43.928C48.224 43.868 49.095 43.666 49.86 43.37C50.648 43.064 51.319 42.652 51.986 41.986C52.652 41.319 53.065 40.651 53.37 39.86C53.666 39.095 53.869 38.224 53.928 36.947C53.988 35.667 54 35.26 54 32C54 28.74 53.985 28.333 53.928 27.053C53.868 25.776 53.666 24.904 53.37 24.14C53.064 23.351 52.652 22.681 51.986 22.014C51.319 21.347 50.651 20.935 49.86 20.63C49.095 20.333 48.224 20.131 46.947 20.072C45.667 20.012 45.26 20 42 20ZM42 22.16C45.203 22.16 45.585 22.176 46.85 22.231C48.02 22.286 48.655 22.48 49.077 22.646C49.639 22.863 50.037 23.123 50.459 23.542C50.878 23.962 51.138 24.361 51.355 24.923C51.519 25.345 51.715 25.98 51.768 27.15C51.825 28.416 51.838 28.796 51.838 32C51.838 35.204 51.823 35.585 51.764 36.85C51.703 38.02 51.508 38.655 51.343 39.077C51.119 39.639 50.864 40.037 50.444 40.459C50.025 40.878 49.62 41.138 49.064 41.355C48.644 41.519 47.999 41.715 46.829 41.768C45.555 41.825 45.18 41.838 41.97 41.838C38.759 41.838 38.384 41.823 37.111 41.764C35.94 41.703 35.295 41.508 34.875 41.343C34.306 41.119 33.915 40.864 33.496 40.444C33.075 40.025 32.806 39.62 32.596 39.064C32.431 38.644 32.237 37.999 32.176 36.829C32.131 35.569 32.115 35.18 32.115 31.985C32.115 28.789 32.131 28.399 32.176 27.124C32.237 25.954 32.431 25.31 32.596 24.89C32.806 24.32 33.075 23.93 33.496 23.509C33.915 23.09 34.306 22.82 34.875 22.611C35.295 22.445 35.926 22.25 37.096 22.19C38.371 22.145 38.746 22.13 41.955 22.13L42 22.16V22.16ZM42 25.838C38.595 25.838 35.838 28.598 35.838 32C35.838 35.405 38.598 38.162 42 38.162C45.405 38.162 48.162 35.402 48.162 32C48.162 28.595 45.402 25.838 42 25.838ZM42 36C39.79 36 38 34.21 38 32C38 29.79 39.79 28 42 28C44.21 28 46 29.79 46 32C46 34.21 44.21 36 42 36ZM49.846 25.595C49.846 26.39 49.2 27.035 48.406 27.035C47.611 27.035 46.966 26.389 46.966 25.595C46.966 24.801 47.612 24.156 48.406 24.156C49.199 24.155 49.846 24.801 49.846 25.595Z" fill="#F4F5F6"/>
</g>
</g>
<defs>
<filter id="filter0_d_272_4041" x="0" y="0" width="84" height="84" filterUnits="userSpaceOnUse" color-interpolation-filters="sRGB">
<feFlood flood-opacity="0" result="BackgroundImageFix"/>
<feColorMatrix in="SourceAlpha" type="matrix" values="0 0 0 0 0 0 0 0 0 0 0 0 0 0 0 0 0 0 127 0" result="hardAlpha"/>
<feOffset dy="10"/>
<feGaussianBlur stdDeviation="10"/>
<feComposite in2="hardAlpha" operator="out"/>
<feColorMatrix type="matrix" values="0 0 0 0 0.466667 0 0 0 0 0.494118 0 0 0 0 0.564706 0 0 0 0.1 0"/>
<feBlend mode="normal" in2="BackgroundImageFix" result="effect1_dropShadow_272_4041"/>
<feBlend mode="normal" in="SourceGraphic" in2="effect1_dropShadow_272_4041" result="shape"/>
</filter>
<clipPath id="clip0_272_4041">
<rect width="24" height="24" fill="white" transform="translate(30 20)"/>
</clipPath>
</defs>
</svg>
