<svg width="44" height="44" viewBox="0 0 44 44" fill="none" xmlns="http://www.w3.org/2000/svg">
<rect x="0.5" y="0.5" width="43" height="43" rx="21.5" fill="white"/>
<rect x="0.5" y="0.5" width="43" height="43" rx="21.5" stroke="#F4F5F6"/>
<path d="M33.953 14.5701C33.0545 14.9657 32.1026 15.2268 31.128 15.3451C32.1541 14.7283 32.9224 13.7611 33.291 12.6221C32.34 13.1771 31.286 13.5811 30.164 13.8061C29.4238 13.0145 28.4429 12.4895 27.3736 12.3126C26.3044 12.1357 25.2067 12.3167 24.2509 12.8277C23.2952 13.3386 22.5349 14.1508 22.0881 15.1382C21.6412 16.1256 21.533 17.2329 21.78 18.2881C17.69 18.0951 14.067 16.1301 11.64 13.1621C11.1988 13.9119 10.9687 14.7671 10.974 15.6371C10.974 17.3471 11.844 18.8501 13.162 19.7331C12.3809 19.7082 11.617 19.497 10.934 19.1171V19.1771C10.9336 20.3135 11.3263 21.415 12.0455 22.2948C12.7647 23.1747 13.7662 23.7786 14.88 24.0041C14.1583 24.1975 13.4024 24.2265 12.668 24.0891C12.9841 25.0671 13.5977 25.922 14.423 26.5346C15.2484 27.1471 16.2444 27.4868 17.272 27.5061C15.5315 28.872 13.3825 29.6134 11.17 29.6111C10.78 29.6111 10.391 29.5881 10 29.5441C12.2557 30.9884 14.8785 31.7551 17.557 31.7531C26.61 31.7531 31.555 24.2571 31.555 17.7681C31.555 17.5581 31.555 17.3481 31.54 17.1381C32.506 16.443 33.3392 15.5799 34 14.5901L33.953 14.5701Z" fill="#777E90"/>
</svg>
